# This file uses meters as units for non-parametric coordinates.

mtllib col_04.mtl
g default
v -305.975039 -0.000000 -376.056924
v -324.818299 -0.000000 -381.110034
v -344.160943 -0.000000 -378.567497
v -361.058229 -0.000000 -368.816392
v -372.937701 -0.000000 -353.341234
v -377.990813 -0.000000 -334.497973
v -375.448275 -0.000000 -315.155328
v -365.697166 -0.000000 -298.258043
v -350.222002 -0.000000 -286.378575
v -331.378738 -0.000000 -281.325466
v -312.036094 -0.000000 -283.868008
v -295.138811 -0.000000 -293.619121
v -283.259348 -0.000000 -309.094286
v -278.206241 -0.000000 -327.937547
v -280.748789 -0.000000 -347.280192
v -290.499902 -0.000000 -364.177475
v -305.975039 400.000000 -376.056924
v -324.818299 400.000000 -381.110034
v -344.160943 400.000000 -378.567497
v -361.058229 400.000000 -368.816392
v -372.937701 400.000000 -353.341234
v -377.990813 400.000000 -334.497973
v -375.448275 400.000000 -315.155328
v -365.697166 400.000000 -298.258043
v -350.222002 400.000000 -286.378575
v -331.378738 400.000000 -281.325466
v -312.036094 400.000000 -283.868008
v -295.138811 400.000000 -293.619121
v -283.259348 400.000000 -309.094286
v -278.206241 400.000000 -327.937547
v -280.748789 400.000000 -347.280192
v -290.499902 400.000000 -364.177475
vt 1.000000 1.000000
vt 0.935703 1.000000
vt 0.877811 1.000000
vt 0.819919 1.000000
vt 0.762027 1.000000
vt 0.704135 1.000000
vt 0.646242 1.000000
vt 0.588350 1.000000
vt 0.530458 1.000000
vt 0.472566 1.000000
vt 0.414674 1.000000
vt 0.356782 1.000000
vt 0.298890 1.000000
vt 0.240998 1.000000
vt 0.183106 1.000000
vt 0.125213 1.000000
vt 0.000000 1.000000
vt 1.000000 0.000000
vt 0.935703 0.000000
vt 0.877811 0.000000
vt 0.819919 0.000000
vt 0.762027 0.000000
vt 0.704135 0.000000
vt 0.646242 0.000000
vt 0.588350 0.000000
vt 0.530458 0.000000
vt 0.472566 0.000000
vt 0.414674 0.000000
vt 0.356782 0.000000
vt 0.298890 0.000000
vt 0.240998 0.000000
vt 0.183106 0.000000
vt 0.125213 0.000000
vt 0.000000 0.000000
vn 0.442469 0.000000 -0.896784
vn 0.065604 0.000000 -0.997846
vn 0.065604 0.000000 -0.997846
vn 0.442469 0.000000 -0.896784
vn -0.321248 0.000000 -0.946995
vn -0.321248 0.000000 -0.946995
vn -0.659194 0.000000 -0.751973
vn -0.659194 0.000000 -0.751973
vn -0.896783 0.000000 -0.442470
vn -0.896783 0.000000 -0.442470
vn -0.997846 0.000000 -0.065604
vn -0.997846 0.000000 -0.065604
vn -0.946995 0.000000 0.321249
vn -0.946995 0.000000 0.321249
vn -0.751973 0.000000 0.659194
vn -0.751973 0.000000 0.659194
vn -0.442469 0.000000 0.896784
vn -0.442469 0.000000 0.896784
vn -0.065604 0.000000 0.997846
vn -0.065604 0.000000 0.997846
vn 0.321249 0.000000 0.946995
vn 0.321249 0.000000 0.946995
vn 0.659194 0.000000 0.751973
vn 0.659194 0.000000 0.751973
vn 0.896784 0.000000 0.442469
vn 0.896784 0.000000 0.442469
vn 0.997846 0.000000 0.065604
vn 0.997846 0.000000 0.065604
vn 0.946995 0.000000 -0.321249
vn 0.946995 0.000000 -0.321249
vn 0.751973 0.000000 -0.659194
vn 0.751973 0.000000 -0.659194
s 1
g pCylinder2
usemtl blinn1SG
f 1/1/1 2/2/2 18/19/3 17/18/4
f 2/2/2 3/3/5 19/20/6 18/19/3
f 3/3/5 4/4/7 20/21/8 19/20/6
f 4/4/7 5/5/9 21/22/10 20/21/8
f 5/5/9 6/6/11 22/23/12 21/22/10
f 6/6/11 7/7/13 23/24/14 22/23/12
f 7/7/13 8/8/15 24/25/16 23/24/14
f 8/8/15 9/9/17 25/26/18 24/25/16
f 9/9/17 10/10/19 26/27/20 25/26/18
f 10/10/19 11/11/21 27/28/22 26/27/20
f 11/11/21 12/12/23 28/29/24 27/28/22
f 12/12/23 13/13/25 29/30/26 28/29/24
f 13/13/25 14/14/27 30/31/28 29/30/26
f 14/14/27 15/15/29 31/32/30 30/31/28
f 15/15/29 16/16/31 32/33/32 31/32/30
f 16/16/31 1/17/1 17/34/4 32/33/32
