# This file uses meters as units for non-parametric coordinates.

mtllib col_03.mtl
g default
v 302.657512 -0.000000 -253.274366
v 283.610601 -0.000000 -249.053284
v 267.628887 -0.000000 -237.864577
v 257.145440 -0.000000 -221.411623
v 253.756270 -0.000000 -202.199234
v 257.977350 -0.000000 -183.152321
v 269.166059 -0.000000 -167.170606
v 285.619017 -0.000000 -156.687162
v 304.831409 -0.000000 -153.297998
v 323.878323 -0.000000 -157.519083
v 339.860035 -0.000000 -168.707795
v 350.343476 -0.000000 -185.160754
v 353.732635 -0.000000 -204.373145
v 349.511549 -0.000000 -223.420056
v 338.322832 -0.000000 -239.401766
v 321.869872 -0.000000 -249.885206
v 302.657512 400.000000 -253.274366
v 283.610601 400.000000 -249.053284
v 267.628887 400.000000 -237.864577
v 257.145440 400.000000 -221.411623
v 253.756270 400.000000 -202.199234
v 257.977350 400.000000 -183.152321
v 269.166059 400.000000 -167.170606
v 285.619017 400.000000 -156.687162
v 304.831409 400.000000 -153.297998
v 323.878323 400.000000 -157.519083
v 339.860035 400.000000 -168.707795
v 350.343476 400.000000 -185.160754
v 353.732635 400.000000 -204.373145
v 349.511549 400.000000 -223.420056
v 338.322832 400.000000 -239.401766
v 321.869872 400.000000 -249.885206
vt 1.000000 1.000000
vt 0.935703 1.000000
vt 0.877811 1.000000
vt 0.819919 1.000000
vt 0.762027 1.000000
vt 0.704135 1.000000
vt 0.646242 1.000000
vt 0.588350 1.000000
vt 0.530458 1.000000
vt 0.472566 1.000000
vt 0.414674 1.000000
vt 0.356782 1.000000
vt 0.298890 1.000000
vt 0.240998 1.000000
vt 0.183106 1.000000
vt 0.125213 1.000000
vt 0.067321 1.000000
vt 1.000000 0.000000
vt 0.935703 0.000000
vt 0.877811 0.000000
vt 0.819919 0.000000
vt 0.762027 0.000000
vt 0.704135 0.000000
vt 0.646242 0.000000
vt 0.588350 0.000000
vt 0.530458 0.000000
vt 0.472566 0.000000
vt 0.414674 0.000000
vt 0.356782 0.000000
vt 0.298890 0.000000
vt 0.240998 0.000000
vt 0.183106 0.000000
vt 0.125213 0.000000
vt 0.067321 0.000000
vn -0.021739 0.000000 -0.999764
vn -0.402677 0.000000 -0.915342
vn -0.402677 0.000000 -0.915342
vn -0.021739 0.000000 -0.999764
vn -0.722311 0.000000 -0.691568
vn -0.722311 0.000000 -0.691568
vn -0.931980 0.000000 -0.362509
vn -0.931980 0.000000 -0.362509
vn -0.999764 0.000000 0.021739
vn -0.999764 0.000000 0.021739
vn -0.915342 0.000000 0.402677
vn -0.915342 0.000000 0.402677
vn -0.691568 0.000000 0.722312
vn -0.691568 0.000000 0.722312
vn -0.362509 0.000000 0.931980
vn -0.362509 0.000000 0.931980
vn 0.021739 0.000000 0.999764
vn 0.021739 0.000000 0.999764
vn 0.402677 0.000000 0.915342
vn 0.402677 0.000000 0.915342
vn 0.722312 0.000000 0.691568
vn 0.722312 0.000000 0.691568
vn 0.931980 0.000000 0.362509
vn 0.931980 0.000000 0.362509
vn 0.999764 0.000000 -0.021739
vn 0.999764 0.000000 -0.021739
vn 0.915342 0.000000 -0.402678
vn 0.915342 0.000000 -0.402678
vn 0.691568 0.000000 -0.722312
vn 0.691568 0.000000 -0.722312
vn 0.362509 0.000000 -0.931980
vn 0.362509 0.000000 -0.931980
s 1
g pCylinder4
usemtl blinn1SG
f 1/1/1 2/2/2 18/19/3 17/18/4
f 2/2/2 3/3/5 19/20/6 18/19/3
f 3/3/5 4/4/7 20/21/8 19/20/6
f 4/4/7 5/5/9 21/22/10 20/21/8
f 5/5/9 6/6/11 22/23/12 21/22/10
f 6/6/11 7/7/13 23/24/14 22/23/12
f 7/7/13 8/8/15 24/25/16 23/24/14
f 8/8/15 9/9/17 25/26/18 24/25/16
f 9/9/17 10/10/19 26/27/20 25/26/18
f 10/10/19 11/11/21 27/28/22 26/27/20
f 11/11/21 12/12/23 28/29/24 27/28/22
f 12/12/23 13/13/25 29/30/26 28/29/24
f 13/13/25 14/14/27 30/31/28 29/30/26
f 14/14/27 15/15/29 31/32/30 30/31/28
f 15/15/29 16/16/31 32/33/32 31/32/30
f 16/16/31 1/17/1 17/34/4 32/33/32
