# This file uses meters as units for non-parametric coordinates.

mtllib floor.mtl
v -1502.803936 0.000000 751.401968
v -1502.803936 0.000000 1502.803936
v -751.401968 0.000000 1502.803936
v -751.401968 0.000000 751.401968
v 0.000000 0.000000 1502.803936
v 0.000000 0.000000 751.401968
v 751.401968 0.000000 1502.803936
v 751.401968 0.000000 751.401968
v 1502.803936 0.000000 1502.803936
v 1502.803936 0.000000 751.401968
v -1502.803936 0.000000 0.000000
v -751.401968 0.000000 0.000000
v 0.000000 0.000000 0.000000
v 751.401968 0.000000 0.000000
v 1502.803936 0.000000 0.000000
v -1502.803936 0.000000 -751.401968
v -751.401968 0.000000 -751.401968
v 0.000000 0.000000 -751.401968
v 751.401968 0.000000 -751.401968
v 1502.803936 0.000000 -751.401968
v -1502.803936 0.000000 -1502.803936
v -751.401968 0.000000 -1502.803936
v 0.000000 0.000000 -1502.803936
v 751.401968 0.000000 -1502.803936
v 1502.803936 0.000000 -1502.803936
vt 0.000000 0.250000
vt 0.000000 0.000000
vt 0.250000 0.000000
vt 0.250000 0.250000
vt 0.500000 0.000000
vt 0.500000 0.250000
vt 0.750000 0.000000
vt 0.750000 0.250000
vt 1.000000 0.000000
vt 1.000000 0.250000
vt 0.000000 0.500000
vt 0.250000 0.500000
vt 0.500000 0.500000
vt 0.750000 0.500000
vt 1.000000 0.500000
vt 0.000000 0.750000
vt 0.250000 0.750000
vt 0.500000 0.750000
vt 0.750000 0.750000
vt 1.000000 0.750000
vt 0.000000 1.000000
vt 0.250000 1.000000
vt 0.500000 1.000000
vt 0.750000 1.000000
vt 1.000000 1.000000
vn 0.000000 1.000000 0.000000
vn 0.000000 1.000000 0.000000
vn 0.000000 1.000000 0.000000
vn 0.000000 1.000000 0.000000
vn 0.000000 1.000000 0.000000
vn 0.000000 1.000000 0.000000
vn 0.000000 1.000000 0.000000
vn 0.000000 1.000000 0.000000
vn 0.000000 1.000000 0.000000
vn 0.000000 1.000000 0.000000
vn 0.000000 1.000000 0.000000
vn 0.000000 1.000000 0.000000
vn 0.000000 1.000000 0.000000
vn 0.000000 1.000000 0.000000
vn 0.000000 1.000000 0.000000
vn 0.000000 1.000000 0.000000
vn 0.000000 1.000000 0.000000
vn 0.000000 1.000000 0.000000
vn 0.000000 1.000000 0.000000
vn 0.000000 1.000000 0.000000
vn 0.000000 1.000000 0.000000
vn 0.000000 1.000000 0.000000
vn 0.000000 1.000000 0.000000
vn 0.000000 1.000000 0.000000
vn 0.000000 1.000000 0.000000
vn 0.000000 1.000000 0.000000
vn 0.000000 1.000000 0.000000
vn 0.000000 1.000000 0.000000
vn 0.000000 1.000000 0.000000
vn 0.000000 1.000000 0.000000
vn 0.000000 1.000000 0.000000
vn 0.000000 1.000000 0.000000
vn 0.000000 1.000000 0.000000
vn 0.000000 1.000000 0.000000
vn 0.000000 1.000000 0.000000
vn 0.000000 1.000000 0.000000
vn 0.000000 1.000000 0.000000
vn 0.000000 1.000000 0.000000
vn 0.000000 1.000000 0.000000
vn 0.000000 1.000000 0.000000
vn 0.000000 1.000000 0.000000
vn 0.000000 1.000000 0.000000
vn 0.000000 1.000000 0.000000
vn 0.000000 1.000000 0.000000
vn 0.000000 1.000000 0.000000
vn 0.000000 1.000000 0.000000
vn 0.000000 1.000000 0.000000
vn 0.000000 1.000000 0.000000
vn 0.000000 1.000000 0.000000
vn 0.000000 1.000000 0.000000
vn 0.000000 1.000000 0.000000
vn 0.000000 1.000000 0.000000
vn 0.000000 1.000000 0.000000
vn 0.000000 1.000000 0.000000
vn 0.000000 1.000000 0.000000
vn 0.000000 1.000000 0.000000
vn 0.000000 1.000000 0.000000
vn 0.000000 1.000000 0.000000
vn 0.000000 1.000000 0.000000
vn 0.000000 1.000000 0.000000
vn 0.000000 1.000000 0.000000
vn 0.000000 1.000000 0.000000
vn 0.000000 1.000000 0.000000
vn 0.000000 1.000000 0.000000
usemtl floor1:___Default
f 1/1/1 2/2/2 3/3/3 4/4/4
f 4/4/5 3/3/6 5/5/7 6/6/8
f 6/6/9 5/5/10 7/7/11 8/8/12
f 8/8/13 7/7/14 9/9/15 10/10/16
f 11/11/17 1/1/18 4/4/19 12/12/20
f 12/12/21 4/4/22 6/6/23 13/13/24
f 13/13/25 6/6/26 8/8/27 14/14/28
f 14/14/29 8/8/30 10/10/31 15/15/32
f 16/16/33 11/11/34 12/12/35 17/17/36
f 17/17/37 12/12/38 13/13/39 18/18/40
f 18/18/41 13/13/42 14/14/43 19/19/44
f 19/19/45 14/14/46 15/15/47 20/20/48
f 21/21/49 16/16/50 17/17/51 22/22/52
f 22/22/53 17/17/54 18/18/55 23/23/56
f 23/23/57 18/18/58 19/19/59 24/24/60
f 24/24/61 19/19/62 20/20/63 25/25/64
